REM MD5 814bedcc6a7c372c7905b7abf9a1875c
FILE "Shadow Madness (France) (Disc 1).bin" BINARY
  TRACK 01 MODE2/2352
    INDEX 01 00:00:00
  TRACK 02 AUDIO
    INDEX 00 63:20:57
    INDEX 01 63:22:57
  TRACK 03 AUDIO
    INDEX 00 67:27:43
    INDEX 01 67:29:43
REM LEADOUT 70:37:20
